HIERARCHY
ROOT Hips
{
	OFFSET 0.00 0.00 0.00
	CHANNELS 6 Xposition Yposition Zposition Xrotation Yrotation Zrotation
	JOINT Spine
	{
		OFFSET 0.00000 5.19526 0.00000
		CHANNELS 3 Xrotation Yrotation Zrotation
		JOINT Head
		{
			OFFSET 0.00000 15.65388 0.00000
			CHANNELS 3 Xrotation Yrotation Zrotation
			End Site
			{
				OFFSET 0.00000 4.52755 0.00000
			}
		}
		JOINT LeftShoulder
		{
			OFFSET 0.00000 10.32977 0.00000
			CHANNELS 3 Xrotation Yrotation Zrotation
			JOINT LeftArm
			{
				OFFSET 6.99601 0.00000 0.00000
				CHANNELS 3 Xrotation Yrotation Zrotation
				JOINT LeftForeArm
				{
					OFFSET 10.20930 0.00000 0.00000
					CHANNELS 3 Yrotation Zrotation Xrotation
					JOINT LeftHand
					{
						OFFSET 8.56316 0.00000 0.00000
						CHANNELS 3 Xrotation Yrotation Zrotation
						JOINT LeftHandThumb1
						{
							OFFSET 0.00000 0.00000 0.00000
							CHANNELS 3 Xrotation Zrotation Yrotation
							End Site
							{
								OFFSET 0.00000 0.00000 3.93700
							}
						}
						End Site
						{
							OFFSET 3.93700 0.00000 0.00000
						}
					}
				}
			}
		}
		JOINT RightShoulder
		{
			OFFSET 0.00000 10.32977 0.00000
			CHANNELS 3 Xrotation Yrotation Zrotation
			JOINT RightArm
			{
				OFFSET -6.99601 0.00000 0.00000
				CHANNELS 3 Xrotation Yrotation Zrotation
				JOINT RightForeArm
				{
					OFFSET -10.20930 0.00000 0.00000
					CHANNELS 3 Yrotation Zrotation Xrotation
					JOINT RightHand
					{
						OFFSET -8.56316 0.00000 0.00000
						CHANNELS 3 Xrotation Yrotation Zrotation
						JOINT RightHandThumb1
						{
							OFFSET 0.00000 0.00000 0.00000
							CHANNELS 3 Xrotation Zrotation Yrotation
							End Site
							{
								OFFSET 0.00000 0.00000 3.93700
							}
						}
						End Site
						{
							OFFSET -3.93700 0.00000 0.00000
						}
					}
				}
			}
		}
	}
	JOINT LeftUpLeg
	{
		OFFSET 3.35136 0.00000 0.00000
		CHANNELS 3 Xrotation Yrotation Zrotation
		JOINT LeftLeg
		{
			OFFSET 0.00000 -16.34683 0.00000
			CHANNELS 3 Xrotation Yrotation Zrotation
			JOINT LeftFoot
			{
				OFFSET 0.00000 -13.95979 0.00000
				CHANNELS 3 Xrotation Yrotation Zrotation
				JOINT LeftToeBase
				{
					OFFSET 0.00000 -1.33694 4.98954
					CHANNELS 3 Xrotation Yrotation Zrotation
					End Site
					{
						OFFSET 0.00000 0.00000 2.95275
					}
				}
			}
		}
	}
	JOINT RightUpLeg
	{
		OFFSET -3.35136 0.00000 0.00000
		CHANNELS 3 Xrotation Yrotation Zrotation
		JOINT RightLeg
		{
			OFFSET 0.00000 -16.34683 0.00000
			CHANNELS 3 Xrotation Yrotation Zrotation
			JOINT RightFoot
			{
				OFFSET 0.00000 -13.95979 0.00000
				CHANNELS 3 Xrotation Yrotation Zrotation
				JOINT RightToeBase
				{
					OFFSET 0.00000 -1.33694 4.98954
					CHANNELS 3 Xrotation Yrotation Zrotation
					End Site
					{
						OFFSET 0.00000 0.00000 2.95275
					}
				}
			}
		}
	}
}
MOTION
Frames: 18
Frame Time: 0.008333
 -1.3332 31.8555 -6.7859 5.4008 13.7500 2.5206 -7.7536 -0.8177 -4.4304 -3.1220 -39.3961 -0.0026 14.3590 11.1451 3.3294 -14.6496 -50.0461 -82.4332 -15.4498 -0.0000 -2.3819 1.2563 10.4728 -6.8795 33.1476 -0.0000 26.2537 -20.2954 13.4148 -23.8079 -72.3191 -42.4108 40.1525 105.9794 0.0000 -27.1282 -0.4272 -6.6889 -3.6626 32.8623 0.0000 -24.3270 -3.0412 -4.8363 -1.4612 1.4417 -0.0000 0.0000 -10.0236 24.1493 -14.4361 8.6092 0.0000 0.0000 1.2743 -8.7681 -3.7148 -3.4311 -0.0000 0.0000 -14.3027 -18.6479 1.1228 5.2169 -0.0000 0.0000
 -1.3311 31.8561 -6.7795 5.4070 13.7942 2.5162 -7.7627 -0.7862 -4.4042 -3.2689 -39.2688 -0.2369 14.3484 11.1557 3.2901 -14.6148 -49.9445 -82.4233 -15.4561 -0.0000 -2.3943 1.2581 10.4651 -6.8941 33.1476 -0.0000 26.2537 -20.4065 13.3881 -23.7109 -73.4405 -43.5708 39.4523 106.6338 0.0000 -26.8760 -0.6142 -6.8064 -5.1683 32.8623 0.0000 -24.3270 -3.0359 -4.8715 -1.4597 1.4316 0.0000 -0.0000 -10.0199 24.1421 -14.4544 8.6403 -0.0000 -0.0000 1.2969 -8.7688 -3.7129 -3.4533 0.0000 0.0000 -14.2922 -18.6831 1.1248 5.1728 -0.0000 0.0000
 -1.3303 31.8568 -6.7730 5.4071 13.8556 2.5050 -7.7622 -0.7581 -4.3706 -3.4584 -39.1433 -0.4410 14.3386 11.1423 3.2658 -14.5759 -49.9190 -82.4102 -15.4595 -0.0000 -2.4657 1.2463 10.4703 -6.8267 33.1476 -0.0000 26.2537 -20.4673 13.3068 -23.6397 -74.5837 -44.6586 38.7204 107.2316 0.0000 -26.8647 -0.7403 -6.8522 -6.1811 32.8623 0.0000 -24.3270 -3.0317 -4.9134 -1.4503 1.4278 -0.0000 0.0000 -10.0178 24.1247 -14.4727 8.6671 0.0000 -0.0000 1.2987 -8.8700 -3.7006 -3.4242 0.0000 -0.0000 -14.3049 -18.6499 1.1505 5.2267 -0.0000 0.0000
 -1.3272 31.8572 -6.7666 5.4113 13.9043 2.5074 -7.7796 -0.7178 -4.3475 -3.6523 -39.1150 -0.6444 14.3702 11.1225 3.2506 -14.5817 -49.8840 -82.4224 -15.4655 -0.0000 -2.5222 1.2304 10.4965 -6.7241 33.1476 -0.0000 26.2537 -20.5565 13.2461 -23.5464 -75.4718 -45.5841 38.0385 107.8819 0.0000 -26.5369 -0.9608 -7.1271 -7.6981 32.8623 0.0000 -24.3270 -3.0264 -4.9403 -1.4579 1.4172 0.0000 -0.0000 -10.0035 24.0967 -14.4487 8.5790 0.0000 -0.0000 1.2910 -8.9697 -3.7071 -3.3910 -0.0000 -0.0000 -14.3264 -18.5986 1.1685 5.1721 0.0000 -0.0000
 -1.3250 31.8588 -6.7609 5.4195 13.9553 2.5085 -7.7790 -0.6880 -4.3439 -3.8150 -38.9305 -0.8328 14.3357 11.1244 3.2511 -14.5486 -49.8507 -82.4353 -15.4680 -0.0000 -2.5646 1.2387 10.5042 -6.7642 33.1476 -0.0000 26.2537 -20.6756 13.1220 -23.4242 -76.2077 -46.3736 37.4525 108.4757 0.0000 -26.1473 -1.2070 -7.3804 -9.3143 32.8623 0.0000 -24.3270 -3.0248 -4.9740 -1.4657 1.4043 -0.0000 0.0000 -9.9778 24.0851 -14.4730 8.6033 -0.0000 -0.0000 1.2786 -9.0429 -3.7108 -3.3560 -0.0000 -0.0000 -14.3370 -18.5850 1.1710 5.1665 0.0000 -0.0000
 -1.3254 31.8596 -6.7552 5.4323 14.0091 2.4901 -7.8068 -0.6951 -4.3106 -3.9771 -38.7780 -1.0493 14.3183 11.1167 3.2532 -14.5017 -49.7884 -82.4475 -15.4770 -0.0000 -2.6104 1.2591 10.5454 -6.8479 33.1476 -0.0000 26.2537 -20.7634 13.0503 -23.3133 -76.6495 -47.0032 37.0062 109.1606 0.0000 -25.1820 -1.6491 -7.9815 -11.7141 32.8623 0.0000 -24.3270 -3.0357 -4.9914 -1.4482 1.4078 -0.0000 -0.0000 -9.9802 24.0536 -14.5114 8.6366 0.0000 0.0000 1.3338 -8.9258 -3.6932 -3.4360 -0.0000 -0.0000 -14.2669 -18.7740 1.2796 5.0653 -0.0000 0.0000
 -1.3245 31.8608 -6.7496 5.4409 14.0510 2.4797 -7.8263 -0.7005 -4.2781 -4.1665 -38.6093 -1.2863 14.3004 11.1107 3.2549 -14.4516 -49.7359 -82.4568 -15.4846 -0.0000 -2.6905 1.2611 10.5547 -6.8527 33.1476 -0.0000 26.2537 -20.8217 12.9331 -23.2022 -77.0233 -47.5531 36.6114 109.7510 0.0000 -24.4998 -2.0421 -8.3919 -13.7295 32.8623 0.0000 -24.3270 -3.0309 -5.0047 -1.4416 1.3902 -0.0000 -0.0000 -9.9468 24.0246 -14.5019 8.5634 -0.0000 -0.0000 1.3497 -8.9125 -3.6827 -3.4488 -0.0000 -0.0000 -14.2891 -18.7922 1.1856 5.1676 -0.0000 -0.0000
 -1.3225 31.8618 -6.7442 5.4530 14.0966 2.4715 -7.8466 -0.7135 -4.2466 -4.3691 -38.4755 -1.5211 14.2694 11.1075 3.2639 -14.3913 -49.6900 -82.4735 -15.4989 -0.0000 -2.6843 1.2710 10.5916 -6.8827 33.1476 -0.0000 26.2537 -20.8657 12.8000 -23.1139 -77.2259 -48.0098 36.3267 110.2853 0.0000 -23.5756 -2.4763 -8.8662 -15.6737 32.8623 0.0000 -24.3270 -3.0324 -5.0216 -1.4387 1.3757 0.0000 -0.0000 -9.9446 24.0113 -14.5485 8.6469 -0.0000 0.0000 1.3505 -8.9267 -3.6788 -3.4394 0.0000 -0.0000 -14.2998 -18.8262 1.1827 5.1991 0.0000 0.0000
 -1.3183 31.8627 -6.7388 5.4585 14.1427 2.4796 -7.8775 -0.7692 -4.2170 -4.5375 -38.3108 -1.7866 14.2901 11.1190 3.2597 -14.3717 -49.6285 -82.4982 -15.5091 -0.0000 -2.6698 1.2714 10.6079 -6.8743 33.1476 -0.0000 26.2537 -20.8468 12.6891 -23.0228 -77.3234 -48.3770 36.1021 110.7696 0.0000 -22.7685 -2.7224 -8.9185 -17.0519 32.8623 0.0000 -24.3270 -3.0299 -5.0417 -1.4563 1.3658 0.0000 -0.0000 -9.9325 23.9978 -14.5261 8.6209 0.0000 0.0000 1.3646 -8.9137 -3.6945 -3.4447 0.0000 -0.0000 -14.3033 -18.8763 1.1841 5.1612 0.0000 -0.0000
 -1.3166 31.8630 -6.7331 5.4682 14.1917 2.4648 -7.9102 -0.8316 -4.1696 -4.7333 -38.1312 -2.0461 14.2765 11.1254 3.2770 -14.3245 -49.5966 -82.5331 -15.5128 -0.0000 -2.7196 1.2645 10.6358 -6.8197 33.1476 -0.0000 26.2537 -20.8329 12.5761 -22.9305 -77.3047 -48.6193 35.9346 111.1433 0.0000 -21.7994 -3.0594 -9.1293 -18.6165 32.8623 0.0000 -24.3270 -3.0291 -5.0644 -1.4468 1.3524 -0.0000 -0.0000 -9.9240 23.9774 -14.5563 8.6242 0.0000 0.0000 1.3725 -8.9184 -3.6837 -3.4402 0.0000 0.0000 -14.3052 -18.9178 1.1951 5.1952 0.0000 -0.0000
 -1.3134 31.8639 -6.7274 5.4741 14.2464 2.4587 -7.9375 -0.8997 -4.1332 -4.9612 -37.9962 -2.3070 14.3011 11.1235 3.2953 -14.3244 -49.5286 -82.5811 -15.5146 -0.0000 -2.7389 1.2662 10.6075 -6.8469 33.1476 -0.0000 26.2537 -20.8746 12.4846 -22.7883 -77.2164 -48.7771 35.7389 111.4384 0.0000 -21.1354 -3.1836 -9.1647 -19.2506 32.8623 0.0000 -24.3270 -3.0292 -5.0787 -1.4472 1.3481 0.0000 0.0000 -9.9140 23.9268 -14.5383 8.5996 0.0000 0.0000 1.3852 -8.9325 -3.6826 -3.4403 -0.0000 0.0000 -14.3131 -18.9537 1.1916 5.1752 -0.0000 0.0000
 -1.3104 31.8643 -6.7218 5.4774 14.2852 2.4607 -7.9549 -0.9688 -4.1039 -5.1965 -37.8216 -2.5451 14.3047 11.1336 3.3288 -14.3205 -49.4629 -82.6444 -15.5122 -0.0000 -2.7511 1.2555 10.6033 -6.7921 33.1476 -0.0000 26.2537 -20.9683 12.4178 -22.6694 -76.9333 -48.8984 35.6128 111.6340 0.0000 -20.7314 -3.3174 -9.2183 -19.8918 32.8623 0.0000 -24.3270 -3.0207 -5.1025 -1.4551 1.3327 -0.0000 0.0000 -9.9033 23.9262 -14.5477 8.6024 0.0000 -0.0000 1.4001 -8.9378 -3.6879 -3.4437 0.0000 0.0000 -14.3136 -18.9920 1.2019 5.2083 -0.0000 0.0000
 -1.3082 31.8644 -6.7163 5.4766 14.3274 2.4598 -7.9687 -1.0499 -4.0666 -5.4317 -37.6078 -2.7941 14.2986 11.1254 3.3715 -14.2919 -49.4087 -82.7013 -15.5097 -0.0000 -2.7673 1.2506 10.5842 -6.7778 33.1476 -0.0000 26.2537 -20.9753 12.2725 -22.5250 -76.6650 -48.8719 35.6351 111.7537 0.0000 -20.5650 -3.2969 -9.1185 -19.9760 32.8623 0.0000 -24.3270 -3.0123 -5.0998 -1.4575 1.3261 0.0000 0.0000 -9.8967 23.8918 -14.5654 8.6105 -0.0000 -0.0000 1.4214 -8.9308 -3.6883 -3.4494 0.0000 -0.0000 -14.3057 -19.0435 1.2413 5.1405 0.0000 0.0000
 -1.3049 31.8645 -6.7112 5.4726 14.3583 2.4647 -7.9804 -1.1405 -4.0198 -5.6831 -37.3515 -3.0691 14.2540 11.0871 3.4176 -14.1910 -49.2985 -82.7452 -15.5282 -0.0000 -2.7352 1.2830 10.6044 -6.9388 33.1476 -0.0000 26.2537 -20.9954 12.1759 -22.4107 -76.2711 -48.7855 35.6839 111.8369 0.0000 -20.6061 -3.3390 -9.1083 -20.2316 32.8623 0.0000 -24.3270 -2.9972 -5.1073 -1.4667 1.3161 0.0000 0.0000 -9.8922 23.8679 -14.5766 8.6407 -0.0000 0.0000 1.4422 -8.9242 -3.6946 -3.4534 -0.0000 0.0000 -14.3382 -19.0764 1.1830 5.2171 -0.0000 0.0000
 -1.3011 31.8648 -6.7073 5.4696 14.3821 2.4703 -7.9794 -1.2336 -3.9710 -5.9689 -37.1101 -3.3626 14.2281 11.0818 3.4488 -14.1395 -49.2583 -82.7863 -15.5283 -0.0000 -2.7621 1.2923 10.6193 -6.9793 33.1476 -0.0000 26.2537 -21.0683 12.1155 -22.2924 -75.7919 -48.6545 35.7423 111.8827 0.0000 -20.6549 -3.4216 -9.1669 -20.5709 32.8623 0.0000 -24.3270 -2.9892 -5.1125 -1.4777 1.3143 -0.0000 -0.0000 -9.8880 23.8511 -14.5942 8.6324 -0.0000 -0.0000 1.4579 -8.9296 -3.7054 -3.4596 -0.0000 -0.0000 -14.3173 -19.1000 1.2580 5.1631 -0.0000 0.0000
 -1.2978 31.8651 -6.7029 5.4593 14.3965 2.4753 -7.9697 -1.3218 -3.9187 -6.2631 -36.8796 -3.6418 14.2027 11.0767 3.4894 -14.0980 -49.2147 -82.8368 -15.5171 -0.0000 -2.7563 1.2922 10.5728 -7.0083 33.1476 -0.0000 26.2537 -21.1505 12.0528 -22.1843 -75.2353 -48.4911 35.8728 111.9255 0.0000 -20.6476 -3.4950 -9.2482 -20.8084 32.8623 0.0000 -24.3270 -2.9716 -5.1145 -1.4829 1.3102 0.0000 0.0000 -9.8839 23.8296 -14.5702 8.5914 0.0000 -0.0000 1.4859 -8.9102 -3.7105 -3.4712 -0.0000 -0.0000 -14.3346 -19.1261 1.1996 5.2068 0.0000 0.0000
 -1.2940 31.8657 -6.6996 5.4483 14.4067 2.4885 -7.9522 -1.4099 -3.8723 -6.5709 -36.6510 -3.9177 14.1686 11.0724 3.5281 -14.0687 -49.1750 -82.8928 -15.4911 -0.0000 -2.7431 1.3009 10.5635 -7.0616 33.1476 -0.0000 26.2537 -21.2135 11.9821 -22.1084 -74.7189 -48.3346 36.0159 111.9196 0.0000 -20.5798 -3.6088 -9.3393 -21.2379 32.8623 0.0000 -24.3270 -2.9560 -5.1274 -1.5006 1.3111 -0.0000 0.0000 -9.8882 23.8468 -14.5841 8.6361 -0.0000 -0.0000 1.5049 -8.9198 -3.7267 -3.4745 0.0000 -0.0000 -14.3337 -19.1259 1.2058 5.1803 -0.0000 -0.0000
 -1.2904 31.8664 -6.6974 5.4338 14.4013 2.5010 -7.9279 -1.4990 -3.8141 -6.8860 -36.3948 -4.1899 14.1664 11.0785 3.5464 -14.0634 -49.1552 -82.9320 -15.4670 -0.0000 -2.7416 1.2998 10.5781 -7.0459 33.1476 -0.0000 26.2537 -21.2121 11.9252 -22.0585 -74.3227 -48.1891 36.1192 111.8840 0.0000 -20.5585 -3.6687 -9.3392 -21.5595 32.8623 0.0000 -24.3270 -2.9387 -5.1002 -1.5161 1.3150 -0.0000 0.0000 -9.8843 23.8385 -14.5955 8.6405 -0.0000 0.0000 1.5223 -8.9100 -3.7404 -3.4737 -0.0000 -0.0000 -14.3311 -19.1401 1.2289 5.1944 -0.0000 -0.0000
